# xmcd
# Track frame offsets:
# 150
# 16917
# 31404
# 47856
# 64798
# 86263
# 101298
# 117711
# 134376
#
# Disc length: 1941 seconds
# Revision: 0
# Processed by: cddbd v1.5.1PL0 Copyright (c) Steve Scherf et al.
# Submitted via: VisiTrax 2.9.10.228 - For more info visit www.synapsa.com
#
DISCID=71079309
DTITLE=Various Artist - Hits Monthly Nashville  PHN0310
DYEAR=1900
DGENRE=Karaoke
TTITLE0=Messina, Jo Dee - I Wish
TTITLE1=Andrews, Jessica - Good Time
TTITLE2=Cagle, Chris - Chicks Dig It
TTITLE3=Ruttan, Deric - When You Come Around
TTITLE4=Shelton, Blake - Playboys Of The Southwestern World
TTITLE5=Emerick, Scotty - I Can't Take You Anywhere
TTITLE6=Currington, Billy - Walk A Little Straighter
TTITLE7=Loveless, Patty - Lovin' All Night
TTITLE8=Byrd, Tracy - Drinkin' Bone
EXTD=
EXTT0=
EXTT1=
EXTT2=
EXTT3=
EXTT4=
EXTT5=
EXTT6=
EXTT7=
EXTT8=
PLAYORDER=
